<mxfile host="app.diagrams.net" modified="2024-03-19T06:37:37.047Z" agent="Mozilla/5.0 (Windows NT 10.0; Win64; x64) AppleWebKit/537.36 (KHTML, like Gecko) Chrome/122.0.0.0 Safari/537.36" etag="220-pB5viMA-5dllJTJG" version="24.0.7" type="device">
  <diagram name="페이지-1" id="VBIEVAwtK1_lRjd0OTuS">
    <mxGraphModel dx="1434" dy="786" grid="1" gridSize="10" guides="1" tooltips="1" connect="1" arrows="1" fold="1" page="1" pageScale="1" pageWidth="827" pageHeight="1169" math="0" shadow="0">
      <root>
        <mxCell id="0" />
        <mxCell id="1" parent="0" />
        <mxCell id="Q5r8lCbZBE5fMgMf21N--6" style="edgeStyle=orthogonalEdgeStyle;rounded=0;orthogonalLoop=1;jettySize=auto;html=1;" edge="1" parent="1" source="Q5r8lCbZBE5fMgMf21N--1" target="Q5r8lCbZBE5fMgMf21N--2">
          <mxGeometry relative="1" as="geometry" />
        </mxCell>
        <mxCell id="Q5r8lCbZBE5fMgMf21N--1" value="start=&quot;1&quot;&lt;div&gt;i = 0&lt;/div&gt;" style="rounded=0;whiteSpace=wrap;html=1;" vertex="1" parent="1">
          <mxGeometry x="350" y="50" width="120" height="60" as="geometry" />
        </mxCell>
        <mxCell id="Q5r8lCbZBE5fMgMf21N--4" style="edgeStyle=orthogonalEdgeStyle;rounded=0;orthogonalLoop=1;jettySize=auto;html=1;" edge="1" parent="1" source="Q5r8lCbZBE5fMgMf21N--2">
          <mxGeometry relative="1" as="geometry">
            <mxPoint x="610" y="190" as="targetPoint" />
          </mxGeometry>
        </mxCell>
        <mxCell id="Q5r8lCbZBE5fMgMf21N--7" style="edgeStyle=orthogonalEdgeStyle;rounded=0;orthogonalLoop=1;jettySize=auto;html=1;" edge="1" parent="1" source="Q5r8lCbZBE5fMgMf21N--2">
          <mxGeometry relative="1" as="geometry">
            <mxPoint x="410" y="280" as="targetPoint" />
          </mxGeometry>
        </mxCell>
        <mxCell id="Q5r8lCbZBE5fMgMf21N--2" value="i&amp;lt;limit?" style="rhombus;whiteSpace=wrap;html=1;" vertex="1" parent="1">
          <mxGeometry x="370" y="150" width="80" height="80" as="geometry" />
        </mxCell>
        <mxCell id="Q5r8lCbZBE5fMgMf21N--3" value="limit = 끝&lt;div&gt;만약 20번째 수열을 알 고 싶다면 limit은 20&lt;/div&gt;" style="text;html=1;align=center;verticalAlign=middle;whiteSpace=wrap;rounded=0;" vertex="1" parent="1">
          <mxGeometry x="80" y="50" width="240" height="30" as="geometry" />
        </mxCell>
        <mxCell id="Q5r8lCbZBE5fMgMf21N--5" value="끝" style="rounded=0;whiteSpace=wrap;html=1;" vertex="1" parent="1">
          <mxGeometry x="610" y="160" width="120" height="60" as="geometry" />
        </mxCell>
        <mxCell id="Q5r8lCbZBE5fMgMf21N--10" style="edgeStyle=orthogonalEdgeStyle;rounded=0;orthogonalLoop=1;jettySize=auto;html=1;entryX=0.5;entryY=0;entryDx=0;entryDy=0;" edge="1" parent="1" source="Q5r8lCbZBE5fMgMf21N--8" target="Q5r8lCbZBE5fMgMf21N--9">
          <mxGeometry relative="1" as="geometry" />
        </mxCell>
        <mxCell id="Q5r8lCbZBE5fMgMf21N--8" value="num=start[0]&lt;div&gt;end = &quot;&quot;&lt;/div&gt;&lt;div&gt;count = 0&lt;/div&gt;&lt;div&gt;j = 0&lt;/div&gt;" style="rounded=0;whiteSpace=wrap;html=1;" vertex="1" parent="1">
          <mxGeometry x="350" y="390" width="120" height="60" as="geometry" />
        </mxCell>
        <mxCell id="Q5r8lCbZBE5fMgMf21N--14" style="edgeStyle=orthogonalEdgeStyle;rounded=0;orthogonalLoop=1;jettySize=auto;html=1;entryX=1;entryY=0.5;entryDx=0;entryDy=0;" edge="1" parent="1" source="Q5r8lCbZBE5fMgMf21N--9" target="Q5r8lCbZBE5fMgMf21N--12">
          <mxGeometry relative="1" as="geometry" />
        </mxCell>
        <mxCell id="Q5r8lCbZBE5fMgMf21N--32" value="" style="edgeStyle=orthogonalEdgeStyle;rounded=0;orthogonalLoop=1;jettySize=auto;html=1;" edge="1" parent="1" source="Q5r8lCbZBE5fMgMf21N--9" target="Q5r8lCbZBE5fMgMf21N--30">
          <mxGeometry relative="1" as="geometry" />
        </mxCell>
        <mxCell id="Q5r8lCbZBE5fMgMf21N--9" value="j&amp;lt;start길이" style="rhombus;whiteSpace=wrap;html=1;" vertex="1" parent="1">
          <mxGeometry x="355" y="510" width="110" height="110" as="geometry" />
        </mxCell>
        <mxCell id="Q5r8lCbZBE5fMgMf21N--23" style="edgeStyle=orthogonalEdgeStyle;rounded=0;orthogonalLoop=1;jettySize=auto;html=1;entryX=0.5;entryY=1;entryDx=0;entryDy=0;" edge="1" parent="1" source="Q5r8lCbZBE5fMgMf21N--12" target="Q5r8lCbZBE5fMgMf21N--22">
          <mxGeometry relative="1" as="geometry" />
        </mxCell>
        <mxCell id="Q5r8lCbZBE5fMgMf21N--12" value="end = end+num+count&lt;div&gt;start = end&lt;/div&gt;" style="rounded=0;whiteSpace=wrap;html=1;" vertex="1" parent="1">
          <mxGeometry x="130" y="535" width="139" height="60" as="geometry" />
        </mxCell>
        <mxCell id="Q5r8lCbZBE5fMgMf21N--15" value="Yes" style="text;html=1;align=center;verticalAlign=middle;whiteSpace=wrap;rounded=0;" vertex="1" parent="1">
          <mxGeometry x="414" y="230" width="46" height="30" as="geometry" />
        </mxCell>
        <mxCell id="Q5r8lCbZBE5fMgMf21N--16" value="No" style="text;html=1;align=center;verticalAlign=middle;whiteSpace=wrap;rounded=0;" vertex="1" parent="1">
          <mxGeometry x="480" y="160" width="46" height="30" as="geometry" />
        </mxCell>
        <mxCell id="Q5r8lCbZBE5fMgMf21N--17" value="No" style="text;html=1;align=center;verticalAlign=middle;whiteSpace=wrap;rounded=0;" vertex="1" parent="1">
          <mxGeometry x="290" y="535" width="46" height="30" as="geometry" />
        </mxCell>
        <mxCell id="Q5r8lCbZBE5fMgMf21N--21" style="edgeStyle=orthogonalEdgeStyle;rounded=0;orthogonalLoop=1;jettySize=auto;html=1;entryX=0.5;entryY=0;entryDx=0;entryDy=0;" edge="1" parent="1" source="Q5r8lCbZBE5fMgMf21N--20" target="Q5r8lCbZBE5fMgMf21N--8">
          <mxGeometry relative="1" as="geometry" />
        </mxCell>
        <mxCell id="Q5r8lCbZBE5fMgMf21N--20" value="start 출력" style="rounded=0;whiteSpace=wrap;html=1;" vertex="1" parent="1">
          <mxGeometry x="350" y="280" width="120" height="60" as="geometry" />
        </mxCell>
        <mxCell id="Q5r8lCbZBE5fMgMf21N--24" style="edgeStyle=orthogonalEdgeStyle;rounded=0;orthogonalLoop=1;jettySize=auto;html=1;entryX=0;entryY=0.5;entryDx=0;entryDy=0;" edge="1" parent="1" source="Q5r8lCbZBE5fMgMf21N--22" target="Q5r8lCbZBE5fMgMf21N--2">
          <mxGeometry relative="1" as="geometry" />
        </mxCell>
        <mxCell id="Q5r8lCbZBE5fMgMf21N--22" value="i++" style="rounded=0;whiteSpace=wrap;html=1;" vertex="1" parent="1">
          <mxGeometry x="140.5" y="160" width="119" height="60" as="geometry" />
        </mxCell>
        <mxCell id="Q5r8lCbZBE5fMgMf21N--29" value="Yes" style="text;html=1;align=center;verticalAlign=middle;whiteSpace=wrap;rounded=0;" vertex="1" parent="1">
          <mxGeometry x="423" y="620" width="46" height="30" as="geometry" />
        </mxCell>
        <mxCell id="Q5r8lCbZBE5fMgMf21N--34" value="" style="edgeStyle=orthogonalEdgeStyle;rounded=0;orthogonalLoop=1;jettySize=auto;html=1;" edge="1" parent="1" source="Q5r8lCbZBE5fMgMf21N--30" target="Q5r8lCbZBE5fMgMf21N--33">
          <mxGeometry relative="1" as="geometry" />
        </mxCell>
        <mxCell id="Q5r8lCbZBE5fMgMf21N--38" style="edgeStyle=orthogonalEdgeStyle;rounded=0;orthogonalLoop=1;jettySize=auto;html=1;entryX=0;entryY=0.5;entryDx=0;entryDy=0;" edge="1" parent="1" source="Q5r8lCbZBE5fMgMf21N--30" target="Q5r8lCbZBE5fMgMf21N--37">
          <mxGeometry relative="1" as="geometry" />
        </mxCell>
        <mxCell id="Q5r8lCbZBE5fMgMf21N--30" value="start[j]==num?" style="rhombus;whiteSpace=wrap;html=1;" vertex="1" parent="1">
          <mxGeometry x="355" y="645" width="110" height="110" as="geometry" />
        </mxCell>
        <mxCell id="Q5r8lCbZBE5fMgMf21N--42" style="edgeStyle=orthogonalEdgeStyle;rounded=0;orthogonalLoop=1;jettySize=auto;html=1;entryX=0.5;entryY=1;entryDx=0;entryDy=0;" edge="1" parent="1" source="Q5r8lCbZBE5fMgMf21N--33" target="Q5r8lCbZBE5fMgMf21N--40">
          <mxGeometry relative="1" as="geometry" />
        </mxCell>
        <mxCell id="Q5r8lCbZBE5fMgMf21N--33" value="count++" style="rounded=0;whiteSpace=wrap;html=1;" vertex="1" parent="1">
          <mxGeometry x="350" y="790" width="119" height="60" as="geometry" />
        </mxCell>
        <mxCell id="Q5r8lCbZBE5fMgMf21N--35" value="Yes" style="text;html=1;align=center;verticalAlign=middle;whiteSpace=wrap;rounded=0;" vertex="1" parent="1">
          <mxGeometry x="419" y="755" width="46" height="30" as="geometry" />
        </mxCell>
        <mxCell id="Q5r8lCbZBE5fMgMf21N--41" style="edgeStyle=orthogonalEdgeStyle;rounded=0;orthogonalLoop=1;jettySize=auto;html=1;" edge="1" parent="1" source="Q5r8lCbZBE5fMgMf21N--37" target="Q5r8lCbZBE5fMgMf21N--40">
          <mxGeometry relative="1" as="geometry" />
        </mxCell>
        <mxCell id="Q5r8lCbZBE5fMgMf21N--37" value="end = end+num+count&lt;div&gt;num=start[j]&lt;/div&gt;&lt;div&gt;count = 1&lt;/div&gt;" style="rounded=0;whiteSpace=wrap;html=1;" vertex="1" parent="1">
          <mxGeometry x="511" y="670" width="139" height="60" as="geometry" />
        </mxCell>
        <mxCell id="Q5r8lCbZBE5fMgMf21N--39" value="No" style="text;html=1;align=center;verticalAlign=middle;whiteSpace=wrap;rounded=0;" vertex="1" parent="1">
          <mxGeometry x="465" y="670" width="46" height="30" as="geometry" />
        </mxCell>
        <mxCell id="Q5r8lCbZBE5fMgMf21N--44" style="edgeStyle=orthogonalEdgeStyle;rounded=0;orthogonalLoop=1;jettySize=auto;html=1;entryX=1;entryY=0.5;entryDx=0;entryDy=0;exitX=0.5;exitY=0;exitDx=0;exitDy=0;" edge="1" parent="1" source="Q5r8lCbZBE5fMgMf21N--40" target="Q5r8lCbZBE5fMgMf21N--9">
          <mxGeometry relative="1" as="geometry">
            <mxPoint x="749.5" y="540" as="targetPoint" />
          </mxGeometry>
        </mxCell>
        <mxCell id="Q5r8lCbZBE5fMgMf21N--40" value="j++" style="rounded=0;whiteSpace=wrap;html=1;" vertex="1" parent="1">
          <mxGeometry x="690" y="670" width="119" height="60" as="geometry" />
        </mxCell>
      </root>
    </mxGraphModel>
  </diagram>
</mxfile>
